<svg width="99" height="56" viewBox="0 0 99 56" fill="none" xmlns="http://www.w3.org/2000/svg">
<path d="M32.1553 55.8597H36.7489L40.7464 35.9424H35.0657L33.4527 44.0776L30.1215 35.9424H25.5629L21.5654 55.8597H27.2461L28.8942 47.7595L32.1553 55.8597Z" fill="#FF9800"/>
<path d="M0 41.062H7.11834L5.68065 48.1453C5.57545 48.5661 5.50532 49.3726 5.50532 49.8986C5.50532 53.4753 8.20538 56 12.0977 56C14.1315 56 19.0056 55.2987 20.3031 48.8115L22.8979 35.9073H17.2173L14.7627 48.1803C14.2718 50.5648 13.2198 50.8453 12.3782 50.8453C11.5717 50.8453 11.1509 50.4245 11.1509 49.5479C11.1509 49.3024 11.186 48.9868 11.2561 48.6362L13.8159 35.9073H1.05197L0 41.062Z" fill="#FF9800"/>
<path d="M61.7858 55.8597H74.9705L75.9874 50.7401H68.4833L68.9742 48.3557H75.2861L76.303 43.2361H70.0262L70.4821 41.0269H77.8108L78.8277 35.9073H65.8183L61.7858 55.8597Z" fill="#FF9800"/>
<path d="M50.2492 55.8597H55.9298L58.8753 41.062H63.1533L64.2053 35.9073H43.6568L39.6593 55.8247H45.34L48.3205 41.0269H53.2648L50.2492 55.8597Z" fill="#FF9800"/>
<path d="M77.1797 55.8597H84.824C87.2435 55.8597 89.2072 55.1584 90.6099 53.7558C92.3281 52.0376 92.7489 50.67 93.6606 46.0063C94.1515 43.5166 94.2567 42.675 94.2567 41.8685C94.2567 38.2217 91.8372 35.9424 87.9449 35.9424H81.1772L77.1797 55.8597ZM84.9993 50.9505H83.6318L85.6656 40.8516H87.2436C88.2955 40.8516 88.7864 41.3074 88.7864 42.2893C88.7864 42.7802 88.6111 44.0075 88.2605 45.8309C87.6293 49.0219 87.3838 49.7583 86.8929 50.2492C86.402 50.7051 85.8059 50.9505 84.9993 50.9505Z" fill="#FF9800"/>
<path d="M69.886 33.9437H75.5666L78.5121 19.1459H82.7902L83.8421 13.9912H69.4652L68.4132 19.1459H72.8666L69.886 33.9437Z" fill="#FF9800"/>
<path d="M1.26245 30.8228L1.68324 31.3137C3.43653 33.3125 5.43527 34.0839 8.76652 34.0839C10.9757 34.0839 13.0095 33.5229 14.4472 32.541C16.2005 31.3137 17.1472 29.4552 17.1472 27.1409C17.1472 24.0551 15.7095 22.372 12.3082 21.4953L10.8705 21.1096C10.1341 20.9343 9.78342 20.6537 9.78342 20.2329C9.78342 19.707 10.4497 18.9355 11.9224 18.9355C13.7459 18.9355 14.6576 19.9524 14.9381 20.3732L18.8654 16.9017L18.4797 16.4108C17.2174 14.7627 14.9732 13.8159 12.3783 13.8159C7.43402 13.8159 4.10278 16.6913 4.10278 21.0044C4.10278 22.8278 4.94435 25.1772 8.94185 26.1941L10.3445 26.5448C11.2562 26.7902 11.4315 27.1409 11.4315 27.6318C11.4315 28.2279 10.5549 28.8942 9.11718 28.8942C6.69764 28.8942 5.6106 27.6669 5.29501 27.176L1.26245 30.8228Z" fill="#FF9800"/>
<path d="M80.546 30.8228L80.9668 31.3137C82.7201 33.3125 84.7188 34.0839 88.0501 34.0839C90.2592 34.0839 92.293 33.5229 93.7307 32.541C95.484 31.3137 96.4308 29.4552 96.4308 27.1409C96.4308 24.0551 94.9931 22.372 91.5917 21.4953L90.154 21.1096C89.4177 20.9343 89.067 20.6537 89.067 20.2329C89.067 19.707 89.7332 18.9355 91.206 18.9355C93.0294 18.9355 93.9411 19.9524 94.2217 20.3732L98.149 16.9017L97.7633 16.4108C96.5009 14.7627 94.2918 13.8159 91.6619 13.8159C86.7176 13.8159 83.3863 16.6913 83.3863 21.0044C83.3863 22.8278 84.2279 25.1772 88.2254 26.1941L89.6281 26.5448C90.5398 26.7902 90.7151 27.1409 90.7151 27.6318C90.7151 28.2279 89.8384 28.8942 88.4008 28.8942C85.9812 28.8942 84.8942 27.6669 84.5786 27.176L80.546 30.8228Z" fill="#FF9800"/>
<path d="M43.9725 13.851C42.3244 13.851 39.94 14.4471 38.2218 16.2004C36.3282 18.0939 35.8022 20.6537 35.171 23.8447C34.8204 25.6681 34.61 27.1058 34.61 28.0175C34.61 30.9631 36.6438 34.119 41.1322 34.119C42.7803 34.119 45.1648 33.5229 46.883 31.7696C48.7765 29.876 49.3025 27.3162 49.9337 24.1252C50.2844 22.3018 50.4948 20.8641 50.4948 19.9524C50.4948 17.0069 48.461 13.851 43.9725 13.851ZM41.4829 29.1747C40.6062 29.1747 40.0802 28.6137 40.0802 27.6318C40.0802 26.9305 40.2556 25.7032 40.5712 24.0551C41.1673 21.1096 41.5179 20.0576 42.0439 19.4966C42.4647 19.0407 43.0258 18.7602 43.5868 18.7602C44.4635 18.7602 44.9894 19.3212 44.9894 20.3031C44.9894 21.0044 44.8141 22.2317 44.4985 23.8798C43.9024 26.7902 43.5517 27.8773 43.0258 28.4383C42.64 28.9293 42.0439 29.1747 41.4829 29.1747Z" fill="#FF9800"/>
<path d="M27.2461 0.0701294V8.03005H28.8591V1.64809H33.6281V8.03005H35.2411V0.0701294H27.2461Z" fill="#FF9800"/>
<path d="M32.015 3.26111H30.437V8.03005H32.015V3.26111Z" fill="#FF9800"/>
<path d="M68.3782 5.32999H66.3795L67.3964 2.41953L68.3782 5.32999ZM70.9029 8.03005L67.9925 0.0701294H66.7652L63.8547 8.03005H65.4678L65.9587 6.62742H68.799L69.2549 8.03005H70.9029Z" fill="#FF9800"/>
<path d="M62.8728 8.03005V0.0701294H61.3299V4.94427L58.174 0.0701294H56.7714V8.03005H58.3493V3.15592L61.5052 8.03005H62.8728Z" fill="#FF9800"/>
<path d="M55.1935 4.76894V3.61177H52.1779V4.9092H53.6507V5.2248C53.6507 5.64559 53.5455 5.99624 53.3 6.27677C53.0545 6.55729 52.6688 6.73262 52.1779 6.73262C51.7571 6.73262 51.4064 6.59236 51.1961 6.31183C50.8805 5.96118 50.8103 5.61052 50.8103 4.06763C50.8103 2.52473 50.8805 2.17408 51.1961 1.82342C51.4064 1.57796 51.7571 1.40263 52.1779 1.40263C52.9844 1.40263 53.4403 1.82342 53.6156 2.5598H55.1935C54.9831 1.2273 54.0364 0 52.1779 0C51.2662 0 50.5999 0.315592 50.0389 0.876644C49.2324 1.68316 49.2674 2.665 49.2674 4.06763C49.2674 5.47026 49.2324 6.4521 50.0389 7.25861C50.5999 7.81966 51.3012 8.13525 52.1779 8.13525C53.0195 8.13525 53.7909 7.88979 54.4221 7.22354C55.0182 6.62743 55.1935 5.92611 55.1935 4.76894Z" fill="#FF9800"/>
<path d="M47.6543 0.0701294H46.1115V8.03005H47.6543V0.0701294Z" fill="#FF9800"/>
<path d="M44.6386 5.68065C44.6386 4.97934 44.4633 4.38322 44.0074 3.9975C43.6568 3.6819 43.2009 3.47151 42.4996 3.36631L41.5528 3.22605C41.2372 3.19098 40.9567 3.05072 40.8164 2.91046C40.6411 2.77019 40.571 2.52473 40.571 2.34941C40.571 1.78835 40.9567 1.3325 41.7983 1.3325C42.3243 1.3325 42.9204 1.40263 43.4464 1.89355L44.4282 0.911709C43.762 0.24546 42.9554 0 41.8684 0C40.1502 0 39.0982 0.981841 39.0982 2.41954C39.0982 3.08579 39.2735 3.61177 39.6593 3.9975C40.0099 4.34815 40.5359 4.55855 41.2022 4.66374L42.1489 4.80401C42.5347 4.87414 42.71 4.94427 42.8502 5.08453C43.0256 5.2248 43.0957 5.47026 43.0957 5.75078C43.0957 6.38197 42.6048 6.73262 41.6931 6.73262C40.9567 6.73262 40.2554 6.55729 39.7645 6.06637L38.7476 7.08328C39.519 7.88979 40.4658 8.13525 41.658 8.13525C43.3762 8.10019 44.6386 7.22354 44.6386 5.68065Z" fill="#FF9800"/>
<path d="M63.6442 25.9487C66.4144 24.4759 67.3963 21.846 67.3963 20.0225C67.3963 18.1641 66.8352 16.6562 65.8183 15.6043C64.7663 14.5523 63.2585 13.9912 61.4351 13.9912H54.2817L53.2648 19.1459H60.6987C61.5052 19.1459 61.8559 19.5316 61.8559 20.3732C61.8559 20.6888 61.7507 22.1616 59.8221 22.1616H52.6336L50.2842 33.9086H55.9298L57.3675 26.8604H57.9986L59.9623 33.9086H66.0988L63.504 25.9837L63.6442 25.9487Z" fill="#FF9800"/>
<path d="M28.9292 14.0263H21.6356L20.6186 19.181H28.0526C28.8591 19.181 29.2098 19.5667 29.2098 20.4083C29.2098 20.7239 29.1046 22.1966 27.1759 22.1966H19.9875L17.6381 33.9437H23.3187L24.7213 27.0357H27.0707C32.1202 27.0357 34.7852 23.4239 34.7852 19.8472C34.7501 16.3406 32.4007 14.0263 28.9292 14.0263Z" fill="#FF9800"/>
</svg>
